<?xml version="1.0" encoding="utf-8"?>
<svg xmlns="http://www.w3.org/2000/svg" viewBox="0 0 500 500">
  <path opacity="1.000000" stroke="none" d="M 96.985 247.762 C 97.821 246.647 99.053 246.217 99.435 245.394 C 110.23 222.113 120.848 198.751 131.697 175.494 C 139.624 158.5 147.825 141.632 155.922 124.716 C 164.72 106.334 173.714 88.043 182.228 69.531 C 184.438 64.73 183.598 57.311 186.978 54.569 C 191.378 51 192.154 46.505 194.343 42.41 C 199.751 32.287 204.314 21.694 210.071 11.783 C 214.048 4.934 220.38 2.106 229.02 2.304 C 252.596 2.844 276.197 2.286 300.509 1.832 C 301.685 1.958 302.135 2.416 302.587 2.872 C 294.321 20.109 285.989 37.316 277.811 54.596 C 271.565 67.792 265.704 81.173 259.333 94.306 C 248.082 117.498 236.507 140.531 225.191 163.69 C 212.085 190.517 198.942 217.332 186.306 244.382 C 184.84 247.517 185.394 252.619 186.904 255.949 C 194.033 271.668 201.889 287.055 209.36 302.62 C 223.389 331.849 237.23 361.169 251.343 390.358 C 262.515 413.466 274.139 436.357 285.241 459.498 C 290.976 471.453 296.014 483.745 300.772 496.333 C 275.298 496.089 250.422 495.391 225.543 494.795 C 225.334 494.79 225.093 496.167 224.866 496.9 C 217.273 493.35 210.862 489.143 207.73 480.36 C 204.361 470.911 199.69 461.833 194.763 453.055 C 187.885 440.803 182.936 427.677 176.616 415.187 C 170.11 402.333 163.771 389.392 157.153 376.596 C 155.953 374.276 156.079 370.126 151.458 370.898 C 151.087 370.961 150.001 369.63 150.075 369.054 C 151.768 356.001 141.765 347.43 137.704 336.6 C 136.959 334.612 135.997 332.667 134.84 330.892 C 134.445 330.289 133.147 330.275 132.627 330.108 C 132.028 327.525 131.902 324.604 130.707 322.217 C 122.972 306.758 114.742 291.544 107.226 275.982 C 103.499 268.266 100.941 259.982 97.419 252.116 C 96.985 250.94 96.985 249.601 96.985 247.762 Z" style="fill: rgb(0, 47, 167); stroke-width: 1;"/>
</svg>