<?xml version="1.0" encoding="utf-8"?>
<svg xmlns="http://www.w3.org/2000/svg" viewBox="0 0 500 500">
  <path opacity="1.000000" stroke="none" d="M 100.414 12.875 C 99.635 11.685 98.71 10.564 98.102 9.292 C 95.663 4.19 96.645 2.66 102.43 2.651 C 119.333 2.623 136.237 2.735 153.139 2.62 C 159.564 2.576 166.057 1.323 172.387 1.949 C 181.166 2.819 187.35 8.401 190.999 16.218 C 195.716 26.318 199.639 36.788 204.334 46.899 C 208.673 56.243 213.755 65.238 218.208 74.532 C 234.633 108.808 250.98 143.122 267.26 177.466 C 275.703 195.279 283.457 213.438 292.434 230.974 C 299.321 244.425 301.263 256.962 292.483 270.322 C 288.811 275.909 286.559 282.461 283.931 288.687 C 282.644 291.735 281.974 295.043 281.139 297.848 C 281.184 297.905 280.639 297.222 280.199 296.674 C 271.857 313.23 263.255 329.636 255.262 346.336 C 245.742 366.229 236.911 386.451 227.472 406.385 C 218.599 425.126 209.294 443.662 200.239 462.317 C 196.834 469.336 194.147 476.766 190.15 483.416 C 184.89 492.167 177.47 498.321 165.391 497.632 C 163.553 497.594 162.619 497.577 161.356 497.169 C 140.246 496.528 119.469 496.272 98.691 496.09 C 98.534 496.088 98.366 497.096 98.145 497.997 C 98.05 498.605 98.016 498.849 97.981 499.094 C 96.042 498.324 94.104 497.556 92.669 496.986 C 94.61 495.003 96.795 493.613 97.784 491.627 C 107.316 472.476 116.697 453.25 126.024 433.995 C 137.25 410.817 148.415 387.611 159.537 364.383 C 166.716 349.387 173.65 334.275 180.909 319.319 C 191.773 296.934 202.875 274.663 213.702 252.26 C 214.535 250.537 214.767 247.805 213.994 246.138 C 208.04 233.289 201.811 220.567 195.584 207.845 C 183.916 184.001 172.162 160.198 160.523 136.34 C 158.739 132.682 157.382 128.817 155.709 124.145 C 152.724 116.639 149.979 109.98 146.911 103.473 C 146.127 101.812 144.318 100.633 142.981 99.232 C 142.981 99.232 143.061 99.191 143.199 98.857 C 142.978 96.995 142.886 95.338 142.219 93.956 C 135.123 79.237 128.006 64.528 120.705 49.909 C 119.409 47.31 117.25 45.143 115.488 42.776 C 115.488 42.776 115.514 42.793 115.555 42.308 C 110.938 31.75 106.278 21.676 101.619 11.604 C 101.217 12.027 100.815 12.451 100.414 12.875 Z" style="fill: rgb(0, 47, 167); stroke-width: 1;"/>
</svg>