<?xml version="1.0" encoding="utf-8"?>
<svg width="1389" height="861" viewBox="0 0 1389 861" fill="none" xmlns="http://www.w3.org/2000/svg">
  <path d="M1009.57 254.239L984.381 254.239L984.381 229.015L1009.57 229.015L1009.57 254.239Z" stroke-width="2.5" style="stroke: rgb(167, 120, 0);"/>
  <path d="M1009.57 229.015L984.381 229.015L984.381 203.791L1009.57 203.791L1009.57 229.015Z" stroke-width="2.5" style="stroke: rgb(167, 120, 0);"/>
  <path d="M1059.96 254.049L1009.57 254.049L1009.57 203.797L1059.96 203.797L1059.96 254.049Z" stroke-width="2.5" style="stroke: rgb(167, 120, 0);"/>
  <path d="M1059.96 329.91L984.381 329.91L984.381 254.239L1059.96 254.239L1059.96 329.91Z" stroke-width="2.5" style="stroke: rgb(167, 120, 0);"/>
  <path d="M984.381 329.91L858.41 329.91L858.41 203.791L984.381 203.791L984.381 329.91Z" stroke-width="2.5" style="stroke: rgb(167, 120, 0);"/>
  <path d="M1059.96 204.437L858.41 204.437L858.41 2.00005L1059.96 2.00003L1059.96 204.437Z" stroke-width="2.5" style="stroke: rgb(167, 120, 0);"/>
  <path d="M1387.68 329.737L1059.92 329.737L1059.92 2.17352L1387.68 2.17349L1387.68 329.737Z" stroke-width="2.5" style="stroke: rgb(167, 120, 0);"/>
  <path d="M1387.68 859.611L858.599 859.611L858.599 329.91L1387.68 329.91L1387.68 859.611Z" stroke-width="2.5" style="stroke: rgb(167, 120, 0);"/>
  <path d="M858.599 859.611L2 859.611L1.99993 2.00018L858.599 2.00011L858.599 859.611Z" stroke-width="2.5" style="stroke: rgb(167, 120, 0);"/>
</svg>