<svg width="1442" height="912" viewBox="0 0 1442 912" fill="none" xmlns="http://www.w3.org/2000/svg">
<path d="M1033.65 277.462L1008.43 277.462L1008.43 252.239L1033.65 252.239L1033.65 277.462Z" stroke="#A77800" stroke-width="2.5"/>
<path d="M1033.65 252.239L1008.43 252.239L1008.43 227.015L1033.65 227.015L1033.65 252.239Z" stroke="#A77800" stroke-width="2.5"/>
<path d="M1084.08 277.273L1033.65 277.273L1033.65 227.021L1084.08 227.021L1084.08 277.273Z" stroke="#A77800" stroke-width="2.5"/>
<path d="M1084.08 353.134L1008.43 353.134L1008.43 277.462L1084.08 277.462L1084.08 353.134Z" stroke="#A77800" stroke-width="2.5"/>
<path d="M1008.43 353.134L882.355 353.134L882.355 227.015L1008.43 227.015L1008.43 353.134Z" stroke="#A77800" stroke-width="2.5"/>
<path d="M1084.08 227.661L882.355 227.661L882.355 25.2239L1084.08 25.2239L1084.08 227.661Z" stroke="#A77800" stroke-width="2.5"/>
<path d="M1412.07 352.961L1084.03 352.961L1084.03 25.3974L1412.07 25.3974L1412.07 352.961Z" stroke="#A77800" stroke-width="2.5"/>
<path d="M1412.07 882.835L882.544 882.835L882.544 353.134L1412.07 353.134L1412.07 882.835Z" stroke="#A77800" stroke-width="2.5"/>
<path d="M882.544 882.835L25.2156 882.835L25.2156 25.2241L882.544 25.224L882.544 882.835Z" stroke="#A77800" stroke-width="2.5"/>
<path d="M1033.65 227.015C1026.96 227.015 1020.55 229.672 1015.82 234.403C1011.09 239.133 1008.43 245.549 1008.43 252.239" stroke="#A77800" stroke-width="5"/>
<path d="M1084.08 277.462C1084.08 264.083 1078.77 251.251 1069.31 241.79C1059.85 232.33 1047.02 227.015 1033.65 227.015" stroke="#A77800" stroke-width="5"/>
<path d="M1008.43 353.134C1028.5 353.134 1047.74 345.162 1061.92 330.97C1076.11 316.779 1084.08 297.532 1084.08 277.462" stroke="#A77800" stroke-width="5"/>
<path d="M882.355 227.015C882.355 260.464 895.638 292.543 919.283 316.195C942.927 339.847 974.995 353.134 1008.43 353.134" stroke="#A77800" stroke-width="5"/>
<path d="M1084.08 25.227C1030.58 25.227 979.27 46.487 941.439 84.3302C903.608 122.173 882.355 173.5 882.355 227.018" stroke="#A77800" stroke-width="5"/>
<path d="M1411.88 353.134C1411.88 266.167 1377.35 182.762 1315.87 121.267C1254.4 59.7715 1171.02 25.2239 1084.08 25.2239" stroke="#A77800" stroke-width="5"/>
<path d="M25.2156 25.2241C25.2156 252.677 115.541 470.813 276.321 631.647C437.102 792.48 655.167 882.835 882.544 882.835" stroke="url(#paint0_linear_81_405)" stroke-width="5"/>
<path d="M882.544 882.835C1022.98 882.835 1157.67 827.027 1256.98 727.689C1356.28 628.351 1412.07 493.619 1412.07 353.134" stroke="#A77800" stroke-width="5"/>
<defs>
<linearGradient id="paint0_linear_81_405" x1="453.88" y1="882.835" x2="453.88" y2="25.224" gradientUnits="userSpaceOnUse">
<stop stop-color="#A77800"/>
<stop offset="1" stop-color="#A77800"/>
</linearGradient>
</defs>
</svg>
