<svg width="1392" height="863" xmlns="http://www.w3.org/2000/svg" fill="none">
 <defs>
  <linearGradient y2="0" x2="0.5" y1="1" x1="0.5" id="paint0_linear_81_405">
   <stop stop-color="#A77800"/>
   <stop stop-color="#A77800" offset="1"/>
  </linearGradient>
 </defs>
 <g>
  <title>Layer 1</title>
  <path id="svg_1" stroke-width="2.5" stroke="#A77800" d="m1010.9344,254.7381l-25.22,0l0,-25.223l25.22,0l0,25.223z"/>
  <path id="svg_2" stroke-width="2.5" stroke="#A77800" d="m1010.9344,229.5151l-25.22,0l0,-25.224l25.22,0l0,25.224z"/>
  <path id="svg_3" stroke-width="2.5" stroke="#A77800" d="m1061.3644,254.5491l-50.43,0l0,-50.252l50.43,0l0,50.252z"/>
  <path id="svg_4" stroke-width="2.5" stroke="#A77800" d="m1061.3644,330.4101l-75.65,0l0,-75.672l75.65,0l0,75.672z"/>
  <path id="svg_5" stroke-width="2.5" stroke="#A77800" d="m985.7144,330.4101l-126.075,0l0,-126.119l126.075,0l0,126.119z"/>
  <path id="svg_6" stroke-width="2.5" stroke="#A77800" d="m1061.3644,204.9371l-201.725,0l0,-202.4371l201.725,0l0,202.4371z"/>
  <path id="svg_7" stroke-width="2.5" stroke="#A77800" d="m1389.3544,330.2371l-328.04,0l0,-327.5636l328.04,0l0,327.5636z"/>
  <path id="svg_8" stroke-width="2.5" stroke="#A77800" d="m1389.3544,860.1111l-529.526,0l0,-529.701l529.526,0l0,529.701z"/>
  <path id="svg_9" stroke-width="2.5" stroke="#A77800" d="m859.8284,860.1111l-857.3284,0l0,-857.6109l857.3284,-0.0001l0,857.611z"/>
  <path id="svg_10" stroke-width="5" stroke="#A77800" d="m1010.9344,204.2911c-6.69,0 -13.1,2.657 -17.83,7.388c-4.73,4.73 -7.39,11.146 -7.39,17.836"/>
  <path id="svg_11" stroke-width="5" stroke="#A77800" d="m1061.3644,254.7381c0,-13.379 -5.31,-26.211 -14.77,-35.672c-9.46,-9.46 -22.29,-14.775 -35.66,-14.775"/>
  <path id="svg_12" stroke-width="5" stroke="#A77800" d="m985.7144,330.4101c20.07,0 39.31,-7.972 53.49,-22.164c14.19,-14.191 22.16,-33.438 22.16,-53.508"/>
  <path id="svg_13" stroke-width="5" stroke="#A77800" d="m859.6394,204.2911c0,33.449 13.283,65.528 36.928,89.18c23.644,23.652 55.712,36.939 89.147,36.939"/>
  <path id="svg_14" stroke-width="5" stroke="#A77800" d="m1061.3644,2.5031c-53.5,0 -104.81,21.26 -142.641,59.1032c-37.831,37.8428 -59.084,89.1698 -59.084,142.6878"/>
  <path id="svg_15" stroke-width="5" stroke="#A77800" d="m1389.1644,330.4101c0,-86.967 -34.53,-170.372 -96.01,-231.867c-61.47,-61.4955 -144.85,-96.0431 -231.79,-96.0431"/>
  <path id="svg_16" stroke-width="5" stroke="url(#paint0_linear_81_405)" d="m2.5,2.5002c0,227.4529 90.3254,445.5889 251.1054,606.4229c160.781,160.833 378.846,251.188 606.223,251.188"/>
  <path id="svg_17" stroke-width="5" stroke="#A77800" d="m859.8284,860.1111c140.436,0 275.126,-55.808 374.436,-155.146c99.3,-99.338 155.09,-234.07 155.09,-374.555"/>
 </g>
</svg>