<svg width="1440" height="912" viewBox="0 0 1440 912" fill="none" xmlns="http://www.w3.org/2000/svg">
<path d="M1032.77 277.462L1007.57 277.462L1007.57 252.239L1032.77 252.239L1032.77 277.462Z" stroke="#A77800" stroke-width="2.5"/>
<path d="M1032.77 252.239L1007.57 252.239L1007.57 227.015L1032.77 227.015L1032.77 252.239Z" stroke="#A77800" stroke-width="2.5"/>
<path d="M1083.16 277.273L1032.77 277.273L1032.77 227.021L1083.16 227.021L1083.16 277.273Z" stroke="#A77800" stroke-width="2.5"/>
<path d="M1083.16 353.134L1007.57 353.134L1007.57 277.462L1083.16 277.462L1083.16 353.134Z" stroke="#A77800" stroke-width="2.5"/>
<path d="M1007.57 353.134L881.604 353.134L881.604 227.015L1007.57 227.015L1007.57 353.134Z" stroke="#A77800" stroke-width="2.5"/>
<path d="M1083.16 227.661L881.604 227.661L881.604 25.2239L1083.16 25.2239L1083.16 227.661Z" stroke="#A77800" stroke-width="2.5"/>
<path d="M1410.87 352.961L1083.11 352.961L1083.11 25.3974L1410.87 25.3974L1410.87 352.961Z" stroke="#A77800" stroke-width="2.5"/>
<path d="M1410.87 882.835L881.793 882.835L881.793 353.134L1410.87 353.134L1410.87 882.835Z" stroke="#A77800" stroke-width="2.5"/>
<path d="M881.793 882.835L25.1941 882.835L25.194 25.2241L881.793 25.224L881.793 882.835Z" stroke="#A77800" stroke-width="2.5"/>
<path d="M1032.77 227.015C1026.09 227.015 1019.68 229.672 1014.95 234.403C1010.23 239.133 1007.57 245.549 1007.57 252.239" stroke="#A77800" stroke-width="5"/>
<path d="M1083.16 277.462C1083.16 264.083 1077.85 251.251 1068.4 241.79C1058.95 232.33 1046.13 227.015 1032.77 227.015" stroke="#A77800" stroke-width="5"/>
<path d="M1007.57 353.134C1027.62 353.134 1046.85 345.162 1061.02 330.97C1075.19 316.779 1083.16 297.532 1083.16 277.462" stroke="#A77800" stroke-width="5"/>
<path d="M881.604 227.015C881.604 260.464 894.876 292.543 918.5 316.195C942.124 339.847 974.166 353.134 1007.57 353.134" stroke="#A77800" stroke-width="5"/>
<path d="M1083.16 25.227C1029.7 25.227 978.436 46.487 940.638 84.3302C902.839 122.173 881.604 173.5 881.604 227.018" stroke="#A77800" stroke-width="5"/>
<path d="M1410.68 353.134C1410.68 266.167 1376.17 182.762 1314.75 121.267C1253.33 59.7715 1170.02 25.2239 1083.16 25.2239" stroke="#A77800" stroke-width="5"/>
<path d="M881.793 882.835C1022.11 882.835 1156.69 827.027 1255.91 727.689C1355.13 628.351 1410.87 493.619 1410.87 353.134" stroke="#A77800" stroke-width="5"/>
<path d="M1032.77 277.462L1007.57 277.462L1007.57 252.239L1032.77 252.239L1032.77 277.462Z" stroke="#A77800" stroke-width="2.5"/>
<path d="M1032.77 252.238L1007.57 252.238L1007.57 227.014L1032.77 227.014L1032.77 252.238Z" stroke="#A77800" stroke-width="2.5"/>
<path d="M1083.16 277.273L1032.77 277.273L1032.77 227.021L1083.16 227.021L1083.16 277.273Z" stroke="#A77800" stroke-width="2.5"/>
<path d="M1083.16 353.134L1007.57 353.134L1007.57 277.462L1083.16 277.462L1083.16 353.134Z" stroke="#A77800" stroke-width="2.5"/>
<path d="M1007.57 353.134L881.604 353.134L881.604 227.015L1007.57 227.015L1007.57 353.134Z" stroke="#A77800" stroke-width="2.5"/>
<path d="M1083.16 227.661L881.604 227.661L881.604 25.2239L1083.16 25.2239L1083.16 227.661Z" stroke="#A77800" stroke-width="2.5"/>
<path d="M1410.87 352.961L1083.11 352.961L1083.11 25.3974L1410.87 25.3974L1410.87 352.961Z" stroke="#A77800" stroke-width="2.5"/>
<path d="M1410.87 882.835L881.793 882.835L881.793 353.134L1410.87 353.134L1410.87 882.835Z" stroke="#A77800" stroke-width="2.5"/>
<path d="M881.793 882.835L25.1941 882.835L25.194 25.2241L881.793 25.224L881.793 882.835Z" stroke="#A77800" stroke-width="2.5"/>
<path d="M1032.77 227.015C1026.09 227.015 1019.68 229.672 1014.95 234.403C1010.23 239.133 1007.57 245.549 1007.57 252.239" stroke="#A77800" stroke-width="5"/>
<path d="M1083.16 277.462C1083.16 264.083 1077.85 251.251 1068.4 241.79C1058.95 232.33 1046.13 227.015 1032.77 227.015" stroke="#A77800" stroke-width="5"/>
<path d="M1007.57 353.134C1027.62 353.134 1046.85 345.162 1061.02 330.97C1075.19 316.779 1083.16 297.532 1083.16 277.462" stroke="#A77800" stroke-width="5"/>
<path d="M881.604 227.015C881.604 260.464 894.876 292.543 918.5 316.195C942.124 339.847 974.166 353.134 1007.57 353.134" stroke="#A77800" stroke-width="5"/>
<path d="M1083.16 25.227C1029.7 25.227 978.436 46.487 940.638 84.3302C902.839 122.173 881.604 173.5 881.604 227.018" stroke="#A77800" stroke-width="5"/>
<path d="M1410.68 353.134C1410.68 266.167 1376.17 182.762 1314.75 121.267C1253.33 59.7715 1170.02 25.2239 1083.16 25.2239" stroke="#A77800" stroke-width="5"/>
<path d="M881.793 882.835C1022.11 882.835 1156.69 827.027 1255.91 727.689C1355.13 628.351 1410.87 493.619 1410.87 353.134" stroke="#A77800" stroke-width="5"/>
</svg>
