<?xml version="1.0" encoding="utf-8"?>
<svg width="1389" height="862.9999999999999" xmlns="http://www.w3.org/2000/svg" fill="none">
  <g>
    <title>Layer 1</title>
    <path id="svg_1" stroke-width="2.5" d="m1008.826,254.7381l-25.2,0l0,-25.223l25.2,0l0,25.223z" style="stroke: rgb(0, 47, 167);"/>
    <path id="svg_2" stroke-width="2.5" d="m1008.826,229.5151l-25.2,0l0,-25.224l25.2,0l0,25.224z" style="stroke: rgb(0, 47, 167);"/>
    <path id="svg_3" stroke-width="2.5" d="m1059.216,254.5491l-50.39,0l0,-50.252l50.39,0l0,50.252z" style="stroke: rgb(0, 47, 167);"/>
    <path id="svg_4" stroke-width="2.5" d="m1059.216,330.4101l-75.59,0l0,-75.672l75.59,0l0,75.672z" style="stroke: rgb(0, 47, 167);"/>
    <path id="svg_5" stroke-width="2.5" d="m983.626,330.4101l-125.966,0l0,-126.119l125.966,0l0,126.119z" style="stroke: rgb(0, 47, 167);"/>
    <path id="svg_6" stroke-width="2.5" d="m1059.216,204.9371l-201.556,0l0,-202.4371l201.556,0l0,202.4371z" style="stroke: rgb(0, 47, 167);"/>
    <path id="svg_7" stroke-width="2.5" d="m1386.926,330.2371l-327.76,0l0,-327.5636l327.76,0l0,327.5636z" style="stroke: rgb(0, 47, 167);"/>
    <path id="svg_8" stroke-width="2.5" d="m1386.926,860.1111l-529.077,0l0,-529.701l529.077,0l0,529.701z" style="stroke: rgb(0, 47, 167);"/>
    <path id="svg_9" stroke-width="2.5" d="m857.849,860.1111l-856.5989,0l-0.0001,-857.6109l856.599,-0.0001l0,857.611z" style="stroke: rgb(0, 47, 167);"/>
    <path id="svg_10" stroke-width="5" d="m1008.826,204.2911c-6.68,0 -13.09,2.657 -17.82,7.388c-4.72,4.73 -7.38,11.146 -7.38,17.836" style="stroke: rgb(0, 47, 167);"/>
    <path id="svg_11" stroke-width="5" d="m1059.216,254.7381c0,-13.379 -5.31,-26.211 -14.76,-35.672c-9.45,-9.46 -22.27,-14.775 -35.63,-14.775" style="stroke: rgb(0, 47, 167);"/>
    <path id="svg_12" stroke-width="5" d="m983.626,330.4101c20.05,0 39.28,-7.972 53.45,-22.164c14.17,-14.191 22.14,-33.438 22.14,-53.508" style="stroke: rgb(0, 47, 167);"/>
    <path id="svg_13" stroke-width="5" d="m857.66,204.2911c0,33.449 13.272,65.528 36.896,89.18c23.624,23.652 55.666,36.939 89.07,36.939" style="stroke: rgb(0, 47, 167);"/>
    <path id="svg_14" stroke-width="5" d="m1059.216,2.5031c-53.46,0 -104.724,21.26 -142.522,59.1032c-37.799,37.8428 -59.034,89.1698 -59.034,142.6878" style="stroke: rgb(0, 47, 167);"/>
    <path id="svg_15" stroke-width="5" d="m1386.736,330.4101c0,-86.967 -34.51,-170.372 -95.93,-231.867c-61.42,-61.4955 -144.73,-96.0431 -231.59,-96.0431" style="stroke: rgb(0, 47, 167);"/>
    <path id="svg_17" stroke-width="2.5" d="m1008.826,254.7381l-25.2,0l0,-25.223l25.2,0l0,25.223z" style="stroke: rgb(0, 47, 167);"/>
    <path id="svg_18" stroke-width="2.5" d="m1008.826,229.5141l-25.2,0l0,-25.224l25.2,0l0,25.224z" style="stroke: rgb(0, 47, 167);"/>
    <path id="svg_19" stroke-width="2.5" d="m1059.216,254.5491l-50.39,0l0,-50.252l50.39,0l0,50.252z" style="stroke: rgb(0, 47, 167);"/>
    <path id="svg_20" stroke-width="2.5" d="m1059.216,330.4101l-75.59,0l0,-75.672l75.59,0l0,75.672z" style="stroke: rgb(0, 47, 167);"/>
    <path id="svg_21" stroke-width="2.5" d="m983.626,330.4101l-125.966,0l0,-126.119l125.966,0l0,126.119z" style="stroke: rgb(0, 47, 167);"/>
    <path id="svg_22" stroke-width="2.5" d="m1059.216,204.9371l-201.556,0l0,-202.4371l201.556,0l0,202.4371z" style="stroke: rgb(0, 47, 167);"/>
    <path id="svg_23" stroke-width="2.5" d="m1386.926,330.2371l-327.76,0l0,-327.5636l327.76,0l0,327.5636z" style="stroke: rgb(0, 47, 167);"/>
    <path id="svg_24" stroke-width="2.5" d="m1386.926,860.1111l-529.077,0l0,-529.701l529.077,0l0,529.701z" style="stroke: rgb(0, 47, 167);"/>
    <path id="svg_25" stroke-width="2.5" d="m857.849,860.1111l-856.5989,0l-0.0001,-857.6109l856.599,-0.0001l0,857.611z" style="stroke: rgb(0, 47, 167);"/>
    <path id="svg_26" stroke-width="5" d="m1008.826,204.2911c-6.68,0 -13.09,2.657 -17.82,7.388c-4.72,4.73 -7.38,11.146 -7.38,17.836" style="stroke: rgb(0, 47, 167);"/>
    <path id="svg_27" stroke-width="5" d="m1059.216,254.7381c0,-13.379 -5.31,-26.211 -14.76,-35.672c-9.45,-9.46 -22.27,-14.775 -35.63,-14.775" style="stroke: rgb(0, 47, 167);"/>
    <path id="svg_28" stroke-width="5" d="m983.626,330.4101c20.05,0 39.28,-7.972 53.45,-22.164c14.17,-14.191 22.14,-33.438 22.14,-53.508" style="stroke: rgb(0, 47, 167);"/>
    <path id="svg_29" stroke-width="5" d="m857.66,204.2911c0,33.449 13.272,65.528 36.896,89.18c23.624,23.652 55.666,36.939 89.07,36.939" style="stroke: rgb(0, 47, 167);"/>
    <path id="svg_30" stroke-width="5" d="m1059.216,2.5031c-53.46,0 -104.724,21.26 -142.522,59.1032c-37.799,37.8428 -59.034,89.1698 -59.034,142.6878" style="stroke: rgb(0, 47, 167);"/>
    <path id="svg_31" stroke-width="5" d="m1386.736,330.4101c0,-86.967 -34.51,-170.372 -95.93,-231.867c-61.42,-61.4955 -144.73,-96.0431 -231.59,-96.0431" style="stroke: rgb(0, 47, 167);"/>
  </g>
</svg>