<svg width="1340" height="828" viewBox="0 0 1340 828" fill="none" xmlns="http://www.w3.org/2000/svg">
<g clip-path="url(#clip0_9_3)">
<path d="M827.031 826.605V1.39513H1.39583V826.605H827.031ZM828.427 828H0V1.51396e-05H828.427V828Z" fill="#A77800"/>
<path d="M1338.6 826.605V318.086H829.823V826.605H1338.6ZM1340 828H828.427V316.691H1340V828Z" fill="#A77800"/>
<path d="M1338.6 315.296V1.39507H1024.54V315.296H1338.6ZM1340 316.691H1023.15V-4.25577e-05H1340V316.691Z" fill="#A77800"/>
<path d="M1021.75 193.223V1.3951H829.823V193.223H1021.75ZM1023.15 194.618H828.427V-1.49012e-05H1023.15V194.618Z" fill="#A77800"/>
<path d="M949.167 315.296V196.013H829.823V315.296H949.167ZM950.563 316.691H828.427V194.618H950.563V316.691Z" fill="#A77800"/>
<path d="M1021.75 315.296V245.54H951.958V315.296H1021.75ZM1023.15 316.691H950.562V244.145H1023.15V316.691Z" fill="#A77800"/>
<path d="M1021.75 242.75V196.013H974.99V242.75H1021.75ZM1023.15 244.145H973.594V194.618H1023.15V244.145Z" fill="#A77800"/>
<path d="M972.198 216.243V196.013H951.958V216.243H972.198ZM973.594 217.638H950.562V194.618H973.594V217.638Z" fill="#A77800"/>
<path d="M0 6.48624e-05C0.348958 414 414.214 828.349 828.427 828" stroke="#A77800" stroke-width="5" stroke-miterlimit="10"/>
<path d="M828.776 828.349C1084.21 827.651 1339.65 572.345 1340.35 316.342" stroke="#A77800" stroke-width="5" stroke-miterlimit="10"/>
<path d="M1340.35 316.342C1340.35 158.694 1181.22 -0.348774 1022.8 0.348783" stroke="#A77800" stroke-width="5" stroke-miterlimit="10"/>
<path d="M1023.02 -1.52588e-05C926.01 -1.52588e-05 829 96.9604 829 194.618" stroke="#A77800" stroke-width="5" stroke-miterlimit="10"/>
<path d="M829 194C829 255.149 889.846 316.297 950 317" stroke="#A77800" stroke-width="5" stroke-miterlimit="10"/>
<path d="M950.214 317.04C986.505 316.342 1022.8 280.767 1022.8 243.796" stroke="#A77800" stroke-width="5" stroke-miterlimit="10"/>
<path d="M1022.8 243.796C1022.8 219.382 998.37 194.967 973.943 194.967" stroke="#A77800" stroke-width="5" stroke-miterlimit="10"/>
<path d="M950.911 217.987C950.911 206.128 962.078 194.967 973.943 194.967" stroke="#A77800" stroke-width="5" stroke-miterlimit="10"/>
</g>
<defs>
<clipPath id="clip0_9_3">
<rect width="1340" height="828" fill="white" transform="matrix(1 0 0 -1 0 828)"/>
</clipPath>
</defs>
</svg>
