<svg width="1920" height="1187" viewBox="0 0 1920 1187" fill="none" xmlns="http://www.w3.org/2000/svg">
<rect width="1920" height="1187" fill="#F5F5F5"/>
<g clip-path="url(#clip0_0_1)">
<rect x="1" y="1" width="1184.63" height="1184.63" stroke="#FFD700" stroke-width="2"/>
<rect x="1187.63" y="1" width="731.375" height="731.375" stroke="#FFD700" stroke-width="2"/>
<rect x="1467.75" y="734.375" width="451.251" height="451.251" stroke="#FFD700" stroke-width="2"/>
<rect x="1187.63" y="907.501" width="278.124" height="278.124" stroke="#FFD700" stroke-width="2"/>
<rect x="1187.63" y="734.375" width="171.126" height="171.126" stroke="#FFD700" stroke-width="2"/>
<rect x="1360.75" y="734.375" width="104.998" height="104.998" stroke="#FFD700" stroke-width="2"/>
<rect x="1401.62" y="841.373" width="64.1284" height="64.1284" stroke="#FFD700" stroke-width="2"/>
<rect x="1360.75" y="866.631" width="38.8696" height="38.8696" stroke="#FFD700" stroke-width="2"/>
<path d="M0 1186.63C0 1186.63 0 0 1186.63 0C1186.63 0 1920 0 1920 733.375C1920 733.375 1920 1186.63 1466.75 1186.63C1466.75 1186.63 1186.63 1186.63 1186.63 906.501C1186.63 906.501 1186.63 733.375 1359.75 733.375C1359.75 733.375 1466.75 733.375 1466.75 840.373C1466.75 840.373 1466.75 906.501 1400.62 906.501C1400.62 906.501 1359.75 906.501 1359.75 865.631" stroke="#4D4D4D" stroke-opacity="0.8" stroke-width="2"/>
</g>
<g clip-path="url(#clip1_0_1)">
<path d="M0 1186.63C0 1186.63 0 0 1186.63 0C1186.63 0 1920 0 1920 733.375C1920 733.375 1920 1186.63 1466.75 1186.63C1466.75 1186.63 1186.63 1186.63 1186.63 906.501C1186.63 906.501 1186.63 733.375 1359.75 733.375C1359.75 733.375 1466.75 733.375 1466.75 840.373C1466.75 840.373 1466.75 906.501 1400.62 906.501C1400.62 906.501 1359.75 906.501 1359.75 865.631" stroke="#FFD700" stroke-width="5"/>
</g>
<g clip-path="url(#clip2_0_1)">
<path d="M0 1186.63C0 1186.63 0 0 1186.63 0C1186.63 0 1920 0 1920 733.375C1920 733.375 1920 1186.63 1466.75 1186.63C1466.75 1186.63 1186.63 1186.63 1186.63 906.501" stroke="#FFD700" stroke-width="5"/>
</g>
<rect x="1" y="1" width="1918" height="1184.63" stroke="#FFD700" stroke-width="2"/>
<defs>
<clipPath id="clip0_0_1">
<rect width="1920" height="1186.63" fill="white"/>
</clipPath>
<clipPath id="clip1_0_1">
<rect width="1920" height="1186.63" fill="white"/>
</clipPath>
<clipPath id="clip2_0_1">
<rect width="1920" height="1186.63" fill="white"/>
</clipPath>
</defs>
</svg>
