<?xml version="1.0" encoding="UTF-8"?>
<svg id="Layer_1" xmlns="http://www.w3.org/2000/svg" version="1.1" viewBox="0 0 1920 1187">
  <!-- Generator: Adobe Illustrator 29.6.1, SVG Export Plug-In . SVG Version: 2.1.1 Build 9)  -->
  <defs>
    <style>
      .st0 {
        stroke-width: 5px;
      }

      .st0, .st1 {
        fill: none;
        stroke: gold;
        stroke-miterlimit: 10;
      }

      .st1 {
        stroke-width: 2px;
      }

      .st2 {
        fill: gold;
      }
    </style>
  </defs>
  <path class="st2" d="M1185,2v1183H2V2h1183M1187,0H0v1187h1187V0h0Z"/>
  <path class="st2" d="M1918,2v729h-729V2h729M1920,0h-733v733h733V0h0Z"/>
  <path class="st2" d="M1918,735v450h-450v-450h450M1920,733h-454v454h454v-454h0Z"/>
  <path class="st2" d="M1464,910v275h-275v-275h275M1466,908h-279v279h279v-279h0Z"/>
  <path class="st2" d="M1360,735v171h-171v-171h171M1362,733h-175v175h175v-175h0Z"/>
  <path class="st2" d="M1464,735v100h-100v-100h100M1466,733h-104v104h104v-104h0Z"/>
  <path class="st2" d="M1464,839v67h-67v-67h67M1466,837h-71v71h71v-71h0Z"/>
  <path class="st2" d="M1393,877v29h-29v-29h29M1395,875h-33v33h33v-33h0Z"/>
  <line class="st1" x1="516" y1="671" x2="516" y2="671"/>
  <path class="st0" d="M0,1187C.5,593.5,593.5-.5,1187,0"/>
  <path class="st0" d="M1187.5-.5c366,1,732,367,733,734"/>
  <path class="st0" d="M1920.5,733.5c0,226-228,454-455,453"/>
  <path class="st0" d="M1465.5,1186.5c-139,0-278-139-278-279"/>
  <path class="st0" d="M1186.5,907.5c0-87,88-174,175-175"/>
  <path class="st0" d="M1361.5,732.5c52,1,104,52,104,105"/>
  <path class="st0" d="M1465.5,837.5c0,35-35,70-70,70"/>
  <path class="st0" d="M1362.5,874.5c0,17,16,33,33,33"/>
</svg>